<svg width="500" height="143" viewBox="0 0 500 143" fill="none" xmlns="http://www.w3.org/2000/svg">
<g clip-path="url(#clip0_489_1028)">
<path d="M156.766 102.08C156.766 98.0531 160.03 94.7886 164.057 94.7886H357.28C361.307 94.7886 364.572 98.0531 364.572 102.08V134.891C364.572 138.918 361.307 142.183 357.28 142.183H164.057C160.03 142.183 156.766 138.918 156.766 134.891V102.08Z" fill="#FCE7D5"/>
<path d="M172.217 131.246V107.293H176.778V131.246H172.217ZM176.121 131.246V127.308H186.982V131.246H176.121ZM176.121 121.041V117.104H186.129V121.041H176.121ZM176.121 111.231V107.293H186.719V111.231H176.121Z" fill="#D76A0B"/>
<path d="M189.367 131.246L195.175 121.73L195.077 122.485L189.597 113.429H194.552L198.128 119.696H198.62L202 113.429H206.659L201.475 122.452L201.573 121.796L207.709 131.246H202.755L198.522 124.519H198.03L194.027 131.246H189.367Z" fill="#D76A0B"/>
<path d="M218.275 131.475C216.634 131.475 215.278 131.268 214.206 130.852C213.156 130.414 212.369 129.693 211.844 128.686C211.319 127.658 211.056 126.28 211.056 124.552L211.089 108.409H215.354L215.322 124.847C215.322 125.722 215.551 126.401 216.011 126.882C216.492 127.341 217.17 127.571 218.045 127.571H220.834V131.475H218.275ZM208.234 116.776V113.429H220.834V116.776H208.234Z" fill="#D76A0B"/>
<path d="M232.539 131.869C231.008 131.869 229.662 131.607 228.503 131.082C227.366 130.557 226.414 129.857 225.648 128.982C224.905 128.085 224.336 127.09 223.942 125.996C223.57 124.902 223.384 123.787 223.384 122.649V122.026C223.384 120.844 223.57 119.707 223.942 118.613C224.336 117.498 224.905 116.513 225.648 115.66C226.414 114.785 227.355 114.096 228.47 113.593C229.586 113.068 230.876 112.806 232.342 112.806C234.267 112.806 235.875 113.232 237.165 114.085C238.478 114.917 239.462 116.021 240.118 117.399C240.775 118.755 241.103 120.221 241.103 121.796V123.437H225.32V120.648H238.248L236.837 122.026C236.837 120.888 236.673 119.915 236.345 119.105C236.017 118.296 235.514 117.673 234.836 117.235C234.179 116.798 233.348 116.579 232.342 116.579C231.336 116.579 230.483 116.809 229.783 117.268C229.083 117.727 228.547 118.395 228.175 119.27C227.825 120.123 227.65 121.151 227.65 122.354C227.65 123.469 227.825 124.465 228.175 125.34C228.525 126.193 229.061 126.871 229.783 127.374C230.505 127.855 231.423 128.096 232.539 128.096C233.654 128.096 234.562 127.877 235.262 127.44C235.962 126.98 236.411 126.422 236.608 125.766H240.807C240.545 126.991 240.042 128.063 239.298 128.982C238.554 129.9 237.603 130.611 236.443 131.114C235.306 131.618 234.004 131.869 232.539 131.869Z" fill="#D76A0B"/>
<path d="M244.913 131.246V113.429H248.522V121.074H248.194C248.194 119.259 248.434 117.749 248.916 116.546C249.397 115.321 250.108 114.402 251.048 113.79C252.011 113.178 253.203 112.871 254.625 112.871H254.822C256.944 112.871 258.551 113.56 259.645 114.938C260.739 116.295 261.286 118.329 261.286 121.041V131.246H256.725V120.648C256.725 119.554 256.408 118.668 255.773 117.99C255.161 117.312 254.308 116.973 253.214 116.973C252.098 116.973 251.191 117.323 250.491 118.023C249.812 118.701 249.473 119.62 249.473 120.779V131.246H244.913Z" fill="#D76A0B"/>
<path d="M272.653 131.803C270.203 131.803 268.278 131.289 266.878 130.261C265.5 129.211 264.778 127.768 264.712 125.93H268.814C268.879 126.543 269.218 127.101 269.831 127.604C270.443 128.107 271.406 128.358 272.718 128.358C273.812 128.358 274.676 128.161 275.31 127.768C275.967 127.374 276.295 126.838 276.295 126.16C276.295 125.569 276.043 125.099 275.54 124.749C275.059 124.399 274.228 124.169 273.046 124.06L271.471 123.896C269.481 123.677 267.95 123.108 266.878 122.19C265.806 121.271 265.27 120.046 265.27 118.515C265.27 117.29 265.576 116.262 266.189 115.431C266.801 114.599 267.643 113.976 268.715 113.56C269.809 113.123 271.056 112.904 272.456 112.904C274.643 112.904 276.415 113.385 277.771 114.348C279.127 115.31 279.838 116.721 279.904 118.58H275.803C275.759 117.968 275.453 117.443 274.884 117.006C274.315 116.568 273.495 116.349 272.423 116.349C271.461 116.349 270.717 116.535 270.192 116.907C269.667 117.279 269.404 117.76 269.404 118.351C269.404 118.92 269.612 119.357 270.028 119.663C270.465 119.969 271.165 120.177 272.128 120.287L273.703 120.451C275.803 120.669 277.443 121.249 278.624 122.19C279.827 123.13 280.429 124.399 280.429 125.996C280.429 127.177 280.101 128.205 279.445 129.08C278.81 129.933 277.913 130.6 276.754 131.082C275.595 131.563 274.228 131.803 272.653 131.803Z" fill="#D76A0B"/>
<path d="M285.05 131.246V113.429H289.611V131.246H285.05ZM282.556 116.841V113.429H289.611V116.841H282.556ZM286.723 111.296C285.826 111.296 285.159 111.067 284.722 110.607C284.306 110.126 284.098 109.535 284.098 108.835C284.098 108.092 284.306 107.49 284.722 107.031C285.159 106.571 285.826 106.342 286.723 106.342C287.62 106.342 288.276 106.571 288.692 107.031C289.107 107.49 289.315 108.092 289.315 108.835C289.315 109.535 289.107 110.126 288.692 110.607C288.276 111.067 287.62 111.296 286.723 111.296Z" fill="#D76A0B"/>
<path d="M303.431 131.869C301.856 131.869 300.467 131.618 299.264 131.114C298.06 130.611 297.043 129.933 296.212 129.08C295.381 128.205 294.747 127.221 294.309 126.127C293.893 125.033 293.686 123.896 293.686 122.715V122.026C293.686 120.801 293.904 119.641 294.342 118.548C294.801 117.432 295.446 116.448 296.278 115.595C297.131 114.72 298.159 114.042 299.362 113.56C300.565 113.057 301.921 112.806 303.431 112.806C304.94 112.806 306.296 113.057 307.499 113.56C308.702 114.042 309.719 114.72 310.551 115.595C311.404 116.448 312.049 117.432 312.487 118.548C312.924 119.641 313.143 120.801 313.143 122.026V122.715C313.143 123.896 312.924 125.033 312.487 126.127C312.071 127.221 311.448 128.205 310.616 129.08C309.785 129.933 308.768 130.611 307.565 131.114C306.362 131.618 304.984 131.869 303.431 131.869ZM303.431 127.965C304.546 127.965 305.487 127.724 306.252 127.243C307.018 126.74 307.598 126.072 307.991 125.241C308.385 124.388 308.582 123.426 308.582 122.354C308.582 121.26 308.374 120.298 307.959 119.466C307.565 118.613 306.974 117.946 306.187 117.465C305.421 116.962 304.502 116.71 303.431 116.71C302.359 116.71 301.429 116.962 300.642 117.465C299.876 117.946 299.285 118.613 298.87 119.466C298.454 120.298 298.246 121.26 298.246 122.354C298.246 123.426 298.443 124.388 298.837 125.241C299.253 126.072 299.843 126.74 300.609 127.243C301.374 127.724 302.315 127.965 303.431 127.965Z" fill="#D76A0B"/>
<path d="M317.136 131.246V113.429H320.746V121.074H320.417C320.417 119.259 320.658 117.749 321.139 116.546C321.621 115.321 322.331 114.402 323.272 113.79C324.235 113.178 325.427 112.871 326.849 112.871H327.045C329.167 112.871 330.775 113.56 331.869 114.938C332.962 116.295 333.509 118.329 333.509 121.041V131.246H328.948V120.648C328.948 119.554 328.631 118.668 327.997 117.99C327.384 117.312 326.531 116.973 325.438 116.973C324.322 116.973 323.414 117.323 322.714 118.023C322.036 118.701 321.697 119.62 321.697 120.779V131.246H317.136Z" fill="#D76A0B"/>
<path d="M344.876 131.803C342.426 131.803 340.502 131.289 339.102 130.261C337.723 129.211 337.002 127.768 336.936 125.93H341.037C341.103 126.543 341.442 127.101 342.055 127.604C342.667 128.107 343.63 128.358 344.942 128.358C346.036 128.358 346.9 128.161 347.534 127.768C348.19 127.374 348.518 126.838 348.518 126.16C348.518 125.569 348.267 125.099 347.764 124.749C347.283 124.399 346.451 124.169 345.27 124.06L343.695 123.896C341.705 123.677 340.173 123.108 339.102 122.19C338.03 121.271 337.494 120.046 337.494 118.515C337.494 117.29 337.8 116.262 338.413 115.431C339.025 114.599 339.867 113.976 340.939 113.56C342.033 113.123 343.28 112.904 344.68 112.904C346.867 112.904 348.639 113.385 349.995 114.348C351.351 115.31 352.062 116.721 352.128 118.58H348.026C347.983 117.968 347.676 117.443 347.108 117.006C346.539 116.568 345.719 116.349 344.647 116.349C343.684 116.349 342.941 116.535 342.416 116.907C341.891 117.279 341.628 117.76 341.628 118.351C341.628 118.92 341.836 119.357 342.251 119.663C342.689 119.969 343.389 120.177 344.351 120.287L345.926 120.451C348.026 120.669 349.667 121.249 350.848 122.19C352.051 123.13 352.653 124.399 352.653 125.996C352.653 127.177 352.325 128.205 351.668 129.08C351.034 129.933 350.137 130.6 348.978 131.082C347.818 131.563 346.451 131.803 344.876 131.803Z" fill="#D76A0B"/>
<path d="M175.138 59.2281C175.987 58.6882 177.751 58.7529 177.751 58.7529H184.32C189.886 58.8083 195.411 57.8173 200.602 55.8325C205.366 54.0485 209.524 50.972 212.597 46.9568C215.61 42.9866 217.116 38.1002 217.116 32.2975C217.116 26.4186 215.706 21.494 212.886 17.5238C210.037 13.5302 206.07 10.4454 201.471 8.6481C196.348 6.63934 190.874 5.647 185.363 5.7277H162.004C162.004 5.7277 159.244 5.70422 157.716 6.83001C156.188 7.95579 156.277 10.0161 156.277 10.0161V81.5503C156.226 82.1087 156.385 82.6662 156.723 83.1164C157.215 83.4542 157.805 83.6256 158.403 83.6048H172.243C172.839 83.6482 173.43 83.4744 173.905 83.1164C174.433 82.5598 174.354 81.3785 174.354 81.3785V60.9134C174.338 60.591 174.401 60.2696 174.538 59.9763C174.674 59.6831 174.88 59.4265 175.138 59.2281ZM184.784 20.1579C189.033 20.1579 192.336 21.2268 194.692 23.3646C197.048 25.5024 198.227 28.6327 198.227 32.7556C198.149 36.3441 196.894 39.1881 194.46 41.2878C192.027 43.3874 188.878 44.4372 185.015 44.4372H176.123C175.637 44.4513 175.16 44.3015 174.772 44.0123C174.484 43.6195 174.337 43.1433 174.354 42.6586V21.3959C174.341 21.2112 174.372 21.026 174.444 20.8553C174.517 20.6846 174.629 20.5332 174.772 20.4133C175.226 20.2111 175.724 20.1234 176.221 20.1579H184.784Z" fill="#3C3C3C"/>
<path d="M234.848 19.814C236.175 19.8341 237.492 19.5854 238.718 19.0831C239.944 18.5809 241.052 17.8357 241.975 16.8936C242.921 15.9994 243.671 14.9232 244.179 13.7316C244.687 12.5399 244.943 11.258 244.931 9.96483C244.951 8.6536 244.699 7.35215 244.191 6.14077C243.683 4.92939 242.929 3.83378 241.975 2.92153C241.052 1.97945 239.944 1.23428 238.718 0.731997C237.492 0.229718 236.175 -0.0190205 234.848 0.00113377C233.54 -0.0111194 232.243 0.241685 231.037 0.743959C229.831 1.24623 228.742 1.98733 227.837 2.92153C226.884 3.83378 226.13 4.92939 225.622 6.14077C225.113 7.35215 224.862 8.6536 224.882 9.96483C224.87 11.258 225.125 12.5399 225.634 13.7316C226.142 14.9232 226.892 15.9994 227.837 16.8936C228.742 17.8278 229.831 18.5689 231.037 19.0712C232.243 19.5734 233.54 19.8262 234.848 19.814ZM243.392 82.3144C243.816 81.7658 244.032 81.0877 244.004 80.3978V32.0682C244.004 32.0682 244.119 29.8922 243.064 28.747C242.008 27.6017 239.788 27.4872 239.788 27.4872H231.43C231.43 27.4872 228.596 27.5828 227.19 29.0905C225.784 30.5983 225.807 33.5181 225.807 33.5181V79.2577C225.807 79.2577 225.701 81.3312 226.618 82.2749C227.535 83.2186 229.486 83.0319 229.486 83.0319H241.35C242.089 83.0049 242.802 82.7545 243.392 82.3144ZM318.813 82.0281C320.087 81.01 320.557 78.9565 320.557 78.9565L336.76 29.8069C336.76 29.8069 337.188 28.7046 336.76 28.1245C336.333 27.5444 335.049 27.4872 335.049 27.4872H321.83C321.052 27.5282 320.295 27.7464 319.617 28.1245C319.097 28.5369 318.732 29.1096 318.579 29.7513L312.306 57.0919C312.302 57.2033 312.276 57.3129 312.229 57.4143C312.183 57.5158 312.116 57.6071 312.034 57.6832C311.951 57.7592 311.855 57.8184 311.749 57.8573C311.643 57.8963 311.531 57.9143 311.418 57.9102C311.306 57.9143 311.193 57.8963 311.088 57.8573C310.982 57.8184 310.885 57.7592 310.803 57.6832C310.72 57.6071 310.654 57.5158 310.607 57.4143C310.561 57.3129 310.535 57.2033 310.531 57.0919L303.686 30.2112C303.563 29.4169 303.181 28.6842 302.597 28.1251C301.865 27.6856 301.02 27.4643 300.163 27.4878H287.565C286.74 27.51 285.933 27.7286 285.212 28.1251C284.67 28.5685 284.304 29.1872 284.178 29.8716L278.848 55.2017C278.848 55.2017 278.724 55.8889 277.244 56.3704C275.763 56.852 275.216 55.2017 275.216 55.2017L269.549 30.2868C269.549 30.2868 269.368 27.9355 268.081 27.0027C266.793 26.0699 264.4 26.5561 264.4 26.5561L256.212 28.9079C256.212 28.9079 253.599 29.5378 252.728 31.0907C251.856 32.6437 252.728 35.11 252.728 35.11L266.816 78.6799C266.816 78.6799 267.187 80.9441 268.636 82.0327C270.085 83.1212 272.61 83.0319 272.61 83.0319H280.513C280.513 83.0319 282.611 83.025 283.821 82.0304C285.032 81.0357 285.355 79.0527 285.355 79.0527L291.999 55.8322C292.05 55.4496 292.241 55.099 292.537 54.8474C292.833 54.5958 293.213 54.461 293.603 54.4687C293.997 54.4639 294.38 54.5988 294.682 54.8489C294.985 55.099 295.186 55.4478 295.251 55.8322L301.936 78.6456C301.936 78.6456 302.208 80.9361 303.728 82.0304C305.249 83.1247 308.019 83.0319 308.019 83.0319H315.448C315.448 83.0319 317.534 83.0485 318.813 82.0304V82.0281ZM353.749 19.814C355.076 19.8342 356.393 19.5855 357.619 19.0832C358.845 18.5809 359.953 17.8357 360.876 16.8936C361.822 15.9994 362.572 14.9232 363.08 13.7316C363.588 12.5399 363.844 11.258 363.832 9.96483C363.852 8.6536 363.6 7.35215 363.092 6.14077C362.584 4.92939 361.83 3.83378 360.876 2.92153C359.953 1.97945 358.845 1.23428 357.619 0.731997C356.393 0.229718 355.076 -0.0190205 353.749 0.00113377C352.441 -0.0111194 351.144 0.241685 349.938 0.743959C348.732 1.24623 347.643 1.98733 346.738 2.92153C345.785 3.83378 345.031 4.92939 344.523 6.14077C344.014 7.35215 343.763 8.6536 343.783 9.96483C343.771 11.258 344.026 12.5399 344.535 13.7316C345.043 14.9232 345.793 15.9994 346.738 16.8936C347.643 17.8278 348.732 18.5689 349.938 19.0712C351.144 19.5734 352.441 19.8262 353.749 19.814ZM361.934 82.0304C363.055 81.0409 362.904 79.0751 362.904 79.0751V31.2459C362.904 31.2459 362.841 29.4948 362.012 28.5546C361.347 27.9419 360.494 27.5663 359.588 27.4872H348.775C348.775 27.4872 346.714 27.6086 345.698 28.6198C344.682 29.6311 344.713 31.5311 344.713 31.5311V78.2791C344.713 78.2791 344.535 80.8405 345.474 82.0275C346.414 83.2146 348.468 83.0319 348.468 83.0319H358.425C358.425 83.0319 360.814 83.0199 361.934 82.0304ZM428.288 28.499C428.788 29.2852 428.788 32.453 428.788 32.453L428.613 85.2079C428.711 89.7631 427.397 94.239 424.847 98.0347C422.2 101.808 418.494 104.734 414.185 106.452C409.588 108.399 404.276 109.373 398.25 109.373C395.16 109.373 391.065 108.8 385.966 107.655C382.663 106.959 379.454 105.882 376.405 104.444C375.983 104.251 375.613 103.959 375.328 103.595C375.043 103.231 374.851 102.804 374.767 102.351C374.62 101.51 374.747 100.645 375.131 99.8809L377.529 94.3355C377.94 93.3988 378.698 92.653 379.647 92.2512C381.134 91.7198 381.975 91.6259 383.477 92.2094C387.84 93.962 392.498 94.8892 397.207 94.9425C401.147 94.9425 404.334 94.0454 406.768 92.2512C407.926 91.4473 408.865 90.3733 409.502 89.1247C410.138 87.876 410.453 86.4912 410.418 85.0934C410.418 85.0934 410.887 82.2216 408.309 82.0212C405.73 81.8208 404.513 84.243 400.104 84.2917C391.374 84.2917 384.421 81.7721 379.245 76.733C374.068 71.6939 371.48 64.5552 371.48 55.3168C371.48 46.0784 374.107 38.8443 379.361 33.6143C384.614 28.3843 391.761 25.7693 400.8 25.7693C403.539 25.7907 406.251 26.315 408.796 27.3154C411.5 28.3461 413.692 31.653 416.329 31.7246C418.965 31.7962 416.113 27.62 419.342 27.6017C421.302 27.5908 423.534 27.5977 425.764 27.6017C426.915 27.6017 427.788 27.7128 428.288 28.499ZM402.075 69.976C404.624 69.976 406.71 69.487 408.796 67.0362C410.882 64.5853 410.418 60.1744 410.418 60.1744V50.749C410.418 50.749 410.998 45.6715 408.796 43.034C406.594 40.3965 404.701 40.1995 401.611 40.1995C400.002 40.1667 398.411 40.5256 396.976 41.2447C395.541 41.9637 394.307 43.0207 393.383 44.3224C391.297 47.071 390.254 50.6976 390.254 55.2023C390.254 59.7833 391.297 63.3908 393.383 66.0249C395.469 68.659 398.366 69.976 402.075 69.976ZM500 55.3168C500 61.2721 498.667 66.4258 496.002 70.7777C493.367 75.1021 489.523 78.582 484.934 80.7987C480.222 83.1273 474.852 84.2917 468.826 84.2917C462.723 84.2917 457.353 83.1655 452.718 80.9132C448.174 78.745 444.397 75.2725 441.882 70.9495C439.294 66.5594 438 61.2721 438 55.0878C438 49.1324 439.333 43.9406 441.998 39.5123C444.602 35.141 448.424 31.6026 453.007 29.3196C457.681 26.9527 463.032 25.7693 469.058 25.7693C475.161 25.7693 480.55 26.9336 485.224 29.2623C489.795 31.4946 493.588 35.0236 496.118 39.3978C498.706 43.8261 500 49.1324 500 55.3168ZM468.942 69.5179C472.65 69.5179 475.625 68.22 477.865 65.6241C480.106 63.0282 481.226 59.5924 481.226 55.3168C481.226 51.0412 480.125 47.5291 477.923 44.7805C476.901 43.4554 475.575 42.3902 474.053 41.6732C472.531 40.9562 470.859 40.608 469.174 40.6576C465.388 40.6576 462.375 41.9746 460.134 44.6087C457.894 47.2428 456.774 50.7358 456.774 55.0878C456.774 59.4397 457.875 62.9327 460.076 65.5668C462.278 68.2009 465.233 69.5179 468.942 69.5179Z" fill="#3C3C3C"/>
<path d="M109.913 0.00341797C123.263 0.00362733 134.537 10.6277 134.537 23.8208C134.537 23.9212 134.535 24.0215 134.533 24.1216L134.559 24.1753V106.954C134.559 111.58 133.635 116.162 131.844 120.436C130.052 124.711 127.426 128.595 124.115 131.867C120.805 135.138 116.874 137.733 112.549 139.503C108.223 141.274 103.587 142.185 98.9053 142.185H35.6504C26.1953 142.185 17.1271 138.473 10.4414 131.866C3.75581 125.259 4.07778e-05 116.297 0 106.954V44.4419C3.93667e-05 39.8153 0.922297 35.2338 2.71387 30.9595C4.50544 26.6852 7.13109 22.8012 10.4414 19.5298C13.7519 16.2583 17.6825 13.6636 22.0078 11.8931C26.3331 10.1225 30.9687 9.21047 35.6504 9.21045H44.0703C40.6864 9.19985 38.9425 9.19355 47.7959 9.21045H63.2822C95.8101 8.71838 94.8951 0.338129 109.913 0.00341797Z" fill="#FF7700"/>
<path d="M110.448 31.7794C115.112 31.7794 118.894 28.0425 118.894 23.4329C118.894 18.8233 115.112 15.0864 110.448 15.0864C105.783 15.0864 102.002 18.8233 102.002 23.4329C102.002 28.0425 105.783 31.7794 110.448 31.7794Z" fill="white"/>
<path d="M67.2717 115.128C89.3082 115.128 107.172 97.4739 107.172 75.6965C107.172 53.9192 89.3082 36.2651 67.2717 36.2651C45.2352 36.2651 27.3711 53.9192 27.3711 75.6965C27.3711 97.4739 45.2352 115.128 67.2717 115.128Z" fill="white"/>
<path d="M67.2783 103.618C82.8809 103.618 95.5293 91.1187 95.5293 75.6996C95.5293 60.2804 82.8809 47.7808 67.2783 47.7808C51.6757 47.7808 39.0273 60.2804 39.0273 75.6996C39.0273 91.1187 51.6757 103.618 67.2783 103.618Z" fill="#3C3C3C"/>
</g>
<defs>
<clipPath id="clip0_489_1028">
<rect width="500" height="143" fill="white"/>
</clipPath>
</defs>
</svg>
